<?xml version="1.0" standalone="no"?>
<!DOCTYPE svg PUBLIC "-//W3C//DTD SVG 20010904//EN"
 "http://www.w3.org/TR/2001/REC-SVG-20010904/DTD/svg10.dtd">
<svg version="1.0" xmlns="http://www.w3.org/2000/svg"
 width="85.000000pt" height="85.000000pt" viewBox="0 0 85.000000 85.000000"
 preserveAspectRatio="xMidYMid meet">
<metadata>
Created by potrace 1.14, written by Peter Selinger 2001-2017
</metadata>
<g transform="translate(0.000000,85.000000) scale(0.100000,-0.100000)"
fill="#000000" stroke="none">
<path d="M70 697 c0 -23 12 -50 40 -87 l40 -54 0 52 0 52 118 0 118 0 0 -120
c0 -66 -2 -121 -5 -121 -20 -5 -71 -4 -72 0 -1 3 -2 40 -3 81 l-1 75 -38 3
-37 3 -1 -53 c0 -29 0 -111 1 -183 1 -135 2 -137 52 -199 l24 -29 -1 99 c-2
140 -4 137 76 125 3 -1 5 -24 5 -51 1 -52 19 -100 39 -100 19 0 37 43 40 96 1
27 3 52 4 55 1 5 47 5 72 0 3 0 5 -41 4 -89 -1 -134 3 -141 45 -80 l34 50 1
167 c1 91 -1 172 -3 179 -5 16 -72 16 -73 0 -1 -7 -2 -44 -3 -83 l-1 -69 -37
-1 c-46 -2 -47 -1 -45 135 l2 105 118 3 c130 3 121 8 117 -68 l-2 -35 41 51
c31 39 41 61 41 88 l0 36 -355 0 -355 0 0 -33z"/>
</g>
</svg>
